<svg width="77" height="57" viewBox="0 0 77 57" fill="none" xmlns="http://www.w3.org/2000/svg">
<rect width="77" height="57" fill="black"/>
<g clip-path="url(#clip0_33_4)">
<path d="M38 9.66669C42.9812 9.66669 43.6027 9.68502 45.557 9.77669C47.5095 9.86835 48.8387 10.1745 50.0084 10.6292C51.2184 11.0949 52.2377 11.7255 53.257 12.743C54.1893 13.6595 54.9106 14.7681 55.3709 15.9917C55.8237 17.1595 56.1317 18.4905 56.2234 20.443C56.3095 22.3974 56.3334 23.0189 56.3334 28C56.3334 32.9812 56.315 33.6027 56.2234 35.557C56.1317 37.5095 55.8237 38.8387 55.3709 40.0084C54.9119 41.2326 54.1904 42.3415 53.257 43.257C52.3403 44.1889 51.2318 44.9102 50.0084 45.3709C48.8405 45.8237 47.5095 46.1317 45.557 46.2234C43.6027 46.3095 42.9812 46.3334 38 46.3334C33.0189 46.3334 32.3974 46.315 30.443 46.2234C28.4905 46.1317 27.1614 45.8237 25.9917 45.3709C24.7676 44.9116 23.6588 44.1901 22.743 43.257C21.8106 42.3407 21.0892 41.232 20.6292 40.0084C20.1745 38.8405 19.8684 37.5095 19.7767 35.557C19.6905 33.6027 19.6667 32.9812 19.6667 28C19.6667 23.0189 19.685 22.3974 19.7767 20.443C19.8684 18.4887 20.1745 17.1614 20.6292 15.9917C21.088 14.7673 21.8095 13.6584 22.743 12.743C23.6591 11.8103 24.7678 11.0889 25.9917 10.6292C27.1614 10.1745 28.4887 9.86835 30.443 9.77669C32.3974 9.69052 33.0189 9.66669 38 9.66669ZM38 18.8334C35.5689 18.8334 33.2373 19.7991 31.5182 21.5182C29.7991 23.2373 28.8334 25.5689 28.8334 28C28.8334 30.4312 29.7991 32.7627 31.5182 34.4818C33.2373 36.2009 35.5689 37.1667 38 37.1667C40.4312 37.1667 42.7627 36.2009 44.4818 34.4818C46.2009 32.7627 47.1667 30.4312 47.1667 28C47.1667 25.5689 46.2009 23.2373 44.4818 21.5182C42.7627 19.7991 40.4312 18.8334 38 18.8334ZM49.9167 18.375C49.9167 17.7672 49.6752 17.1843 49.2455 16.7546C48.8157 16.3248 48.2328 16.0834 47.625 16.0834C47.0172 16.0834 46.4343 16.3248 46.0046 16.7546C45.5748 17.1843 45.3334 17.7672 45.3334 18.375C45.3334 18.9828 45.5748 19.5657 46.0046 19.9955C46.4343 20.4252 47.0172 20.6667 47.625 20.6667C48.2328 20.6667 48.8157 20.4252 49.2455 19.9955C49.6752 19.5657 49.9167 18.9828 49.9167 18.375ZM38 22.5C39.4587 22.5 40.8577 23.0795 41.8891 24.1109C42.9206 25.1424 43.5 26.5413 43.5 28C43.5 29.4587 42.9206 30.8577 41.8891 31.8891C40.8577 32.9206 39.4587 33.5 38 33.5C36.5413 33.5 35.1424 32.9206 34.1109 31.8891C33.0795 30.8577 32.5 29.4587 32.5 28C32.5 26.5413 33.0795 25.1424 34.1109 24.1109C35.1424 23.0795 36.5413 22.5 38 22.5Z" fill="white"/>
</g>
<defs>
<clipPath id="clip0_33_4">
<rect width="38" height="38" fill="white" transform="translate(19 9)"/>
</clipPath>
</defs>
</svg>
