<svg width="77" height="57" viewBox="0 0 77 57" fill="none" xmlns="http://www.w3.org/2000/svg">
<rect width="77" height="57" fill="black"/>
<g clip-path="url(#clip0_33_5)">
<path d="M29.7233 15.1667C29.7229 16.1391 29.3361 17.0716 28.6481 17.7589C27.9601 18.4461 27.0273 18.832 26.0548 18.8315C25.0824 18.831 24.1499 18.4442 23.4627 17.7563C22.7754 17.0683 22.3895 16.1355 22.39 15.163C22.3905 14.1905 22.7773 13.2581 23.4653 12.5708C24.1532 11.8835 25.0861 11.4977 26.0585 11.4982C27.031 11.4987 27.9634 11.8854 28.6507 12.5734C29.338 13.2614 29.7238 14.1942 29.7233 15.1667ZM29.8333 21.5467H22.5V44.5H29.8333V21.5467ZM41.42 21.5467H34.1233V44.5H41.3467V32.455C41.3467 25.745 50.0917 25.1217 50.0917 32.455V44.5H57.3333V29.9617C57.3333 18.65 44.39 19.0717 41.3467 24.6267L41.42 21.5467Z" fill="white"/>
</g>
<defs>
<clipPath id="clip0_33_5">
<rect width="36" height="34" fill="white" transform="translate(22 11)"/>
</clipPath>
</defs>
</svg>
