<svg width="77" height="57" viewBox="0 0 77 57" fill="none" xmlns="http://www.w3.org/2000/svg">
<rect width="77" height="57" fill="black"/>
<path d="M61 14.2353C59.3805 14.9765 57.6348 15.4635 55.826 15.6965C57.6769 14.5741 59.1071 12.7953 59.7801 10.6565C58.0344 11.7153 56.0994 12.4565 54.0593 12.88C52.3977 11.0588 50.0631 10 47.413 10C42.4704 10 38.4321 14.0659 38.4321 19.0847C38.4321 19.8047 38.5163 20.5035 38.6635 21.16C31.1759 20.7788 24.5086 17.1576 20.0707 11.6729C19.2925 13.0071 18.8509 14.5741 18.8509 16.2259C18.8509 19.3812 20.4283 22.1765 22.8681 23.7647C21.3748 23.7647 19.9866 23.3412 18.7667 22.7059V22.7694C18.7667 27.1741 21.8795 30.8588 26.0019 31.6847C24.6784 32.0494 23.2889 32.1001 21.9426 31.8329C22.5139 33.6382 23.6327 35.2178 25.1417 36.3497C26.6508 37.4817 28.4742 38.109 30.3556 38.1435C27.1663 40.6856 23.213 42.0597 19.1453 42.04C18.4302 42.04 17.7151 41.9976 17 41.9129C20.9962 44.4965 25.7495 46 30.8394 46C47.413 46 56.5201 32.1506 56.5201 20.1435C56.5201 19.7412 56.5201 19.36 56.499 18.9576C58.2658 17.6871 59.7801 16.0776 61 14.2353Z" fill="white"/>
</svg>
